<svg width="24" height="24" viewBox="0 0 24 24" fill="none" xmlns="http://www.w3.org/2000/svg">
<path d="M7.82799 19.1603C8.99627 19.7367 10.2859 20.0242 11.5884 19.9984L11.6003 19.9983C13.2637 19.9983 14.8897 19.5044 16.2721 18.5794C17.6545 17.6543 18.731 16.3397 19.3654 14.8021C19.9997 13.2646 20.1632 11.5734 19.8352 9.94284C19.5072 8.31228 18.7024 6.8158 17.5228 5.64309C16.3432 4.47037 14.842 3.67423 13.2094 3.35558C11.5768 3.03694 9.88641 3.21013 8.35237 3.85322C6.81832 4.49631 5.50975 5.58031 4.59256 6.96783C3.67341 8.35831 3.19065 9.93686 3.20014 11.5966C3.20203 11.9279 2.93494 12.1981 2.60358 12.2C2.27221 12.2019 2.00205 11.9348 2.00016 11.6034C1.98927 9.6991 2.5452 7.88893 3.5915 6.3061C4.63974 4.72033 6.13526 3.48147 7.88843 2.74653C9.64161 2.01158 11.5735 1.81364 13.4393 2.17781C15.3051 2.54197 17.0208 3.45184 18.3689 4.79209C19.7169 6.13234 20.6367 7.84263 21.0116 9.70617C21.3865 11.5697 21.1996 13.5026 20.4747 15.2598C19.7497 17.017 18.5193 18.5195 16.9395 19.5767C15.3612 20.6328 13.5052 21.1971 11.6062 21.1983C10.1136 21.2269 8.63586 20.897 7.29701 20.2364C6.32517 19.7569 5.44713 19.1133 4.70015 18.3367V20.6C4.70015 20.9314 4.43152 21.2 4.10015 21.2C3.76878 21.2 3.50015 20.9314 3.50015 20.6V16H8.10015C8.43152 16 8.70015 16.2686 8.70015 16.6C8.70015 16.9314 8.43152 17.2 8.10015 17.2H5.28631C5.99347 18.0141 6.857 18.6812 7.82799 19.1603Z" fill="#ffffff"/>
<path d="M12.2001 7.60009C12.2001 7.26872 11.9314 7.00009 11.6001 7.00009C11.2687 7.00009 11.0001 7.26872 11.0001 7.60009V12.8885L13.7252 15.0686C13.984 15.2756 14.3616 15.2337 14.5686 14.9749C14.7756 14.7161 14.7336 14.3386 14.4749 14.1316L12.2001 12.3117V7.60009Z" fill="#ffffff"/>
</svg>
