<svg width="24" height="24" viewBox="0 0 24 24" fill="none" xmlns="http://www.w3.org/2000/svg">
<path fill-rule="evenodd" clip-rule="evenodd" d="M16 6.5C16 8.70914 14.2091 10.5 12 10.5C9.79086 10.5 8 8.70914 8 6.5C8 4.29086 9.79086 2.5 12 2.5C14.2091 2.5 16 4.29086 16 6.5ZM14.8 6.5C14.8 8.0464 13.5464 9.3 12 9.3C10.4536 9.3 9.2 8.0464 9.2 6.5C9.2 4.9536 10.4536 3.7 12 3.7C13.5464 3.7 14.8 4.9536 14.8 6.5Z" fill="#ffffff"/>
<path d="M3.18812 20.4118C3.18812 16.1525 7.11465 12.1765 12 12.1765C16.8854 12.1765 20.8119 16.1525 20.8119 20.4118C20.8119 20.7366 21.0779 21 21.4059 21C21.734 21 22 20.7366 22 20.4118C22 15.4663 17.5042 11 12 11C6.49584 11 2 15.4663 2 20.4118C2 20.7366 2.26597 21 2.59406 21C2.92215 21 3.18812 20.7366 3.18812 20.4118Z" fill="#ffffff"/>
</svg>
