<svg width="24" height="24" viewBox="0 0 24 24" fill="none" xmlns="http://www.w3.org/2000/svg">
<path fill-rule="evenodd" clip-rule="evenodd" d="M7.16886 5.01176C7.41287 3.22879 8.93602 1.8999 10.7356 1.8999H13.2626C15.0622 1.8999 16.5853 3.22879 16.8294 5.01176L17.1014 6.99992H19.8312L20.9959 19.9101C21.0487 20.4954 20.5877 20.9999 20 20.9999H4.00008C3.41232 20.9999 2.95131 20.4954 3.00413 19.9101L4.16894 6.99992H6.89676L7.16886 5.01176ZM8.10795 6.99992H15.8903L15.6404 5.17448C15.4778 3.98583 14.4623 3.0999 13.2626 3.0999H10.7356C9.53588 3.0999 8.52045 3.98583 8.35778 5.17447L8.10795 6.99992ZM4.21894 19.7999L5.26555 8.19992H18.7346L19.7811 19.7999H4.21894Z" fill="#111111"/>
</svg>
