<svg width="44" height="44" viewBox="0 0 44 44" fill="none" xmlns="http://www.w3.org/2000/svg">
<circle cx="22" cy="22" r="22" fill="url(#paint0_linear_1570_1471)"/>
<path d="M13.3205 27.9974C12.4396 28.0246 11.5661 27.8351 10.7814 27.4468C10.1079 27.0958 9.50461 26.6311 9 26.0747L10.8793 24.6372C11.1311 25.0748 11.4907 25.4453 11.9262 25.7159C12.3402 25.9652 12.819 26.0952 13.3065 26.0905C13.5522 26.0955 13.7966 26.0557 14.027 25.9732C14.2227 25.9017 14.4024 25.7944 14.5563 25.6573C14.6988 25.5325 14.8103 25.3782 14.8827 25.2059C14.9528 25.0334 14.9891 24.8497 14.99 24.6643C14.9957 24.4566 14.9255 24.2536 14.7918 24.0911C14.6487 23.9254 14.4737 23.7882 14.2765 23.6872C14.0417 23.5654 13.7959 23.465 13.542 23.387C13.2622 23.299 12.9778 23.211 12.684 23.123C12.4836 23.0539 12.2825 22.9828 12.0818 22.9119C11.909 22.8509 11.7363 22.7898 11.5648 22.7303C11.2007 22.5998 10.86 22.4148 10.5552 22.182C10.2551 21.949 10.0068 21.6596 9.8254 21.3312C9.62565 20.9364 9.52955 20.5 9.5456 20.0607C9.54191 19.6442 9.63515 19.2324 9.8184 18.8556C10.0018 18.4822 10.263 18.1495 10.5855 17.8784C10.928 17.5917 11.3236 17.3704 11.7513 17.2263C12.2244 17.0688 12.7223 16.9924 13.2226 17.0006C13.6277 16.9962 14.032 17.0356 14.428 17.1179C14.7652 17.1908 15.0928 17.2998 15.405 17.4429C15.6972 17.5725 15.9734 17.7337 16.2281 17.9236C16.4749 18.1163 16.7085 18.3244 16.9275 18.5464L15.2301 19.7944C15.0177 19.4691 14.7211 19.2032 14.3698 19.0231C14.0185 18.843 13.6246 18.7549 13.2272 18.7676C12.8119 18.74 12.4011 18.8658 12.0778 19.1196C11.9511 19.2278 11.8503 19.3614 11.7823 19.511C11.7142 19.6606 11.6806 19.8228 11.6837 19.9862C11.6773 20.1817 11.7416 20.3733 11.8656 20.5278C12.0021 20.6874 12.1691 20.8199 12.3575 20.9182C12.5879 21.0391 12.829 21.1395 13.078 21.2184L13.9431 21.5049C14.3161 21.6223 14.6931 21.7569 15.0739 21.9089C15.4438 22.0574 15.7907 22.2548 16.1045 22.4956C16.4144 22.7397 16.6698 23.0422 16.8553 23.3848C17.056 23.7827 17.1543 24.2217 17.1421 24.6643C17.1405 25.0922 17.0514 25.5156 16.8797 25.9099C16.708 26.3043 16.4572 26.6617 16.1418 26.9616C15.7959 27.2832 15.3889 27.5369 14.9433 27.7086C14.4275 27.9079 13.8759 28.006 13.3205 27.9974Z" fill="white"/>
<path d="M22.4349 27.9974C21.554 28.0246 20.6804 27.8351 19.8957 27.4468C19.215 27.0832 18.6051 26.6074 18.0934 26.0409L20.0053 24.6372C20.2564 25.0753 20.6162 25.446 21.0522 25.7159C21.4651 25.9658 21.9433 26.0958 22.4302 26.0905C22.6758 26.0955 22.9202 26.0557 23.1507 25.9732C23.347 25.9016 23.5275 25.7944 23.6823 25.6573C23.8241 25.5319 23.9355 25.3778 24.0087 25.2059C24.078 25.0332 24.1136 24.8496 24.1136 24.6643C24.12 24.4569 24.0507 24.254 23.9178 24.0911C23.7742 23.9259 23.5993 23.7888 23.4025 23.6872C23.1667 23.5658 22.9201 23.4654 22.6657 23.387C22.3882 23.299 22.1014 23.211 21.81 23.123C21.4346 23.0057 21.0615 22.877 20.6861 22.7416C20.3182 22.6082 19.9743 22.4193 19.6672 22.182C19.3669 21.9497 19.1193 21.6601 18.9397 21.3312C18.74 20.9364 18.6439 20.5 18.6599 20.0607C18.6562 19.6443 18.7495 19.2324 18.9327 18.8556C19.1153 18.4823 19.3757 18.1496 19.6975 17.8785C20.0405 17.5924 20.436 17.3712 20.8633 17.2263C21.3356 17.0688 21.8328 16.9924 22.3323 17.0006C22.7373 16.9962 23.1416 17.0356 23.5377 17.1179C23.8763 17.191 24.2055 17.3 24.5193 17.4429C24.8109 17.5757 25.0855 17.7408 25.3377 17.9349C25.584 18.1283 25.8176 18.3363 26.0372 18.5577L24.3375 19.8057C24.1256 19.4804 23.8295 19.2145 23.4785 19.0343C23.1275 18.8542 22.734 18.7661 22.3369 18.7789C21.9206 18.7493 21.5084 18.8753 21.1851 19.1309C21.0585 19.2391 20.9577 19.3726 20.8896 19.5223C20.8216 19.6719 20.788 19.834 20.7911 19.9975C20.7846 20.193 20.8489 20.3846 20.9729 20.5391C21.1094 20.6987 21.2765 20.8312 21.4649 20.9295C21.6952 21.0504 21.9363 21.1508 22.1854 21.2296L23.0574 21.505C23.4305 21.6223 23.8066 21.7569 24.1859 21.9089C24.5561 22.0569 24.903 22.2544 25.2165 22.4956C25.527 22.7391 25.7826 23.0417 25.9673 23.3848C26.168 23.7827 26.2663 24.2217 26.2541 24.6643C26.254 25.0877 26.1659 25.5067 25.9952 25.8965C25.824 26.2964 25.571 26.6587 25.2515 26.9616C24.9065 27.2832 24.5002 27.5369 24.0553 27.7086C23.5402 27.9076 22.9894 28.0057 22.4349 27.9974Z" fill="white"/>
<path d="M35 19.0453H29.9404V21.5412H35V23.4481H29.9404V27.8509H27.8792V17.1384H35V19.0453Z" fill="white"/>
<defs>
<linearGradient id="paint0_linear_1570_1471" x1="15.5833" y1="-10.45" x2="50.4334" y2="28.3829" gradientUnits="userSpaceOnUse">
<stop offset="0.239583" stop-color="#7400E8"/>
<stop offset="1" stop-color="#00A99E"/>
</linearGradient>
</defs>
</svg>
