<svg width="44" height="44" viewBox="0 0 44 44" fill="none" xmlns="http://www.w3.org/2000/svg">
<path d="M11.3251 39.8982C10.7051 39.8982 10.0851 39.7482 9.50512 39.4282C8.24512 38.7482 7.49512 37.4982 7.49512 36.0682V7.92825C7.50512 6.49825 8.25512 5.23825 9.51512 4.56825C10.7751 3.88825 12.2351 3.95825 13.4251 4.73825L34.7851 18.8082C35.8651 19.5182 36.5051 20.7082 36.5051 21.9982C36.5051 23.2882 35.8651 24.4782 34.7851 25.1882L13.4251 39.2582C12.7851 39.6782 12.0551 39.8982 11.3351 39.8982H11.3251ZM11.3251 6.11825C11.0351 6.11825 10.7451 6.18825 10.4751 6.33825C9.88512 6.65825 9.53512 7.24825 9.53512 7.91825V36.0682C9.53512 36.7382 9.88512 37.3282 10.4751 37.6482C11.0651 37.9682 11.7551 37.9382 12.3151 37.5682L33.6851 23.4982C34.1951 23.1582 34.4951 22.6082 34.4951 21.9982C34.4951 21.3882 34.2051 20.8382 33.6851 20.4982L12.3151 6.41825C12.0151 6.21825 11.6751 6.11825 11.3251 6.11825Z" fill="white"/>
</svg>
