<svg width="24" height="24" viewBox="0 0 24 24" fill="none" xmlns="http://www.w3.org/2000/svg">
<path d="M2 4.9999C2 4.66853 2.26863 4.3999 2.6 4.3999H21.4C21.7314 4.3999 22 4.66853 22 4.9999C22 5.33127 21.7314 5.5999 21.4 5.5999H2.6C2.26863 5.5999 2 5.33127 2 4.9999Z" fill="#ffffff"/>
<path d="M2 11.9999C2 11.6685 2.26863 11.3999 2.6 11.3999H21.4C21.7314 11.3999 22 11.6685 22 11.9999C22 12.3313 21.7314 12.5999 21.4 12.5999H2.6C2.26863 12.5999 2 12.3313 2 11.9999Z" fill="#ffffff"/>
<path d="M2.6 18.3999C2.26863 18.3999 2 18.6685 2 18.9999C2 19.3313 2.26863 19.5999 2.6 19.5999H21.4C21.7314 19.5999 22 19.3313 22 18.9999C22 18.6685 21.7314 18.3999 21.4 18.3999H2.6Z" fill="#ffffff"/>
</svg>
