<svg width="24" height="24" viewBox="0 0 24 24" fill="none" xmlns="http://www.w3.org/2000/svg">
<path fill-rule="evenodd" clip-rule="evenodd" d="M15.2195 16.0629C13.8185 17.2701 11.9945 18 10 18C5.58172 18 2 14.4183 2 10C2 5.58172 5.58172 2 10 2C14.4183 2 18 5.58172 18 10C18 11.9918 17.2721 13.8135 16.0678 15.2138L21.0455 20.007C21.2842 20.2368 21.2914 20.6167 21.0615 20.8554C20.8317 21.0941 20.4518 21.1012 20.2132 20.8714L15.2195 16.0629ZM16.8 10C16.8 13.7555 13.7555 16.8 10 16.8C6.24446 16.8 3.2 13.7555 3.2 10C3.2 6.24446 6.24446 3.2 10 3.2C13.7555 3.2 16.8 6.24446 16.8 10Z" fill="#111111"/>
</svg>
